<svg xmlns="http://www.w3.org/2000/svg" viewBox="0 0 24 24" fill="#00C4CC"><path d="M12 0C5.373 0 0 5.373 0 12s5.373 12 12 12 12-5.373 12-12S18.627 0 12 0zm4.14 16.18c-.474.852-1.282 1.481-2.254 1.74a3.648 3.648 0 0 1-.975.132c-.532 0-1.058-.133-1.538-.393a3.04 3.04 0 0 1-.555-.37c-.323.166-.737.278-1.17.278-1.338 0-2.307-1.071-2.307-2.545 0-2.117 1.703-4.498 3.86-4.498.467 0 .88.114 1.218.333l.057-.276h1.65l-1.08 5.199c-.034.165-.013.277.058.344a.395.395 0 0 0 .282.108c.632 0 1.392-.74 1.733-1.697.231-.668.347-1.476.347-2.408 0-3.272-2.24-5.218-5.222-5.218-3.2 0-5.78 2.648-5.78 6.163 0 3.636 2.54 5.835 5.96 5.835 1.098 0 2.074-.204 2.979-.621l.478 1.096c-1.057.497-2.256.753-3.547.753-4.614 0-7.675-3.04-7.675-7.153C2.624 5.773 6.477 2.46 11.5 2.46c4.208 0 7.095 2.855 7.095 6.463 0 1.23-.194 2.37-.584 3.39a6.003 6.003 0 0 1-1.871 2.867zM10.544 12.37c-.884 0-1.882 1.318-1.882 2.918 0 .84.392 1.295.943 1.295.545 0 1.012-.383 1.128-.933l.612-2.925a1.198 1.198 0 0 0-.801-.355z"/></svg>
